<?xml version="1.0" encoding="UTF-8"?>
<svg xmlns="http://www.w3.org/2000/svg" xmlns:xlink="http://www.w3.org/1999/xlink" width="2000" zoomAndPan="magnify" viewBox="0 0 1500 1499.999933" height="2000" preserveAspectRatio="xMidYMid meet" version="1.0" style="background: transparent;"><defs><g/><clipPath id="62eae210dc"><rect x="0" width="775" y="0" height="169"/></clipPath><clipPath id="ce40a09f64"><rect x="0" width="587" y="0" height="82"/></clipPath></defs><path fill="#d9d9d9" d="M 460.960938 471.628906 C 467.949219 509.839844 470.914062 548.734375 470.359375 587.933594 C 467.640625 778.191406 406.238281 947.429688 283.75 1093.785156 C 275.527344 1103.617188 266.4375 1112.832031 257.347656 1121.917969 C 256.296875 1122.96875 254.75 1123.527344 251.96875 1124.332031 C 251.289062 1135.585938 250.484375 1147.457031 249.617188 1160.875 C 258.953125 1157.660156 262.601562 1157.472656 264.519531 1155.496094 C 273.609375 1146.40625 282.699219 1137.191406 290.921875 1127.359375 C 413.472656 981.066406 474.933594 811.769531 477.59375 621.507812 C 478.335938 570.808594 473.203125 520.597656 460.960938 471.628906 Z M 460.960938 471.628906 " fill-opacity="1" fill-rule="nonzero"/><path fill="#5170ff" d="M 179.933594 1127.300781 C 181.292969 1105.597656 182.46875 1088.035156 183.519531 1070.476562 C 188.28125 990.773438 178.449219 912.988281 150.933594 837.859375 C 123.851562 764.035156 83.78125 698.984375 20.589844 650.015625 C 16.757812 647.046875 12.859375 644.203125 0 634.433594 C 17.683594 637.152344 73.582031 667.328125 93.058594 683.898438 C 138.691406 722.792969 176.777344 768.484375 208.871094 819.125 C 216.539062 831.246094 224.328125 843.300781 233.542969 857.710938 C 240.714844 850.847656 247.824219 846.519531 251.410156 840.148438 C 267.300781 812.261719 284.613281 784.871094 297.042969 755.375 C 343.417969 645.5 362.339844 530.304688 358.628906 411.21875 C 358.382812 403.179688 357.886719 395.140625 357.390625 387.101562 C 354.671875 339.121094 370.4375 372.820312 372.972656 379.558594 C 398.386719 446.710938 408.835938 516.765625 407.847656 587.933594 C 405.125 778.191406 343.726562 947.429688 221.238281 1093.785156 C 213.011719 1103.617188 203.921875 1112.832031 194.835938 1121.917969 C 192.917969 1123.898438 189.269531 1124.082031 179.933594 1127.300781 Z M 179.933594 1127.300781 " fill-opacity="1" fill-rule="nonzero"/><path fill="#5170ff" d="M 286.285156 646.738281 C 286.285156 647.839844 286.257812 648.941406 286.203125 650.042969 C 286.148438 651.140625 286.066406 652.242188 285.960938 653.335938 C 285.851562 654.433594 285.71875 655.527344 285.554688 656.617188 C 285.394531 657.707031 285.207031 658.792969 284.992188 659.875 C 284.777344 660.953125 284.535156 662.027344 284.265625 663.097656 C 284 664.167969 283.703125 665.230469 283.386719 666.285156 C 283.066406 667.339844 282.71875 668.382812 282.347656 669.421875 C 281.976562 670.460938 281.582031 671.488281 281.160156 672.503906 C 280.738281 673.523438 280.289062 674.53125 279.820312 675.527344 C 279.347656 676.523438 278.851562 677.507812 278.332031 678.480469 C 277.8125 679.449219 277.269531 680.410156 276.703125 681.355469 C 276.136719 682.300781 275.546875 683.230469 274.9375 684.148438 C 274.324219 685.0625 273.691406 685.964844 273.03125 686.847656 C 272.375 687.734375 271.699219 688.601562 271 689.453125 C 270.300781 690.304688 269.582031 691.140625 268.839844 691.957031 C 268.101562 692.773438 267.339844 693.570312 266.5625 694.351562 C 265.78125 695.128906 264.984375 695.890625 264.167969 696.628906 C 263.351562 697.371094 262.519531 698.089844 261.664062 698.789062 C 260.8125 699.488281 259.945312 700.164062 259.058594 700.820312 C 258.175781 701.476562 257.273438 702.113281 256.359375 702.722656 C 255.441406 703.335938 254.511719 703.925781 253.566406 704.492188 C 252.621094 705.058594 251.664062 705.601562 250.691406 706.121094 C 249.71875 706.640625 248.734375 707.136719 247.738281 707.609375 C 246.742188 708.078125 245.734375 708.523438 244.71875 708.945312 C 243.699219 709.367188 242.671875 709.765625 241.632812 710.136719 C 240.597656 710.507812 239.550781 710.851562 238.496094 711.171875 C 237.441406 711.492188 236.378906 711.785156 235.308594 712.054688 C 234.242188 712.324219 233.167969 712.5625 232.085938 712.777344 C 231.003906 712.992188 229.917969 713.183594 228.828125 713.34375 C 227.738281 713.503906 226.644531 713.640625 225.546875 713.75 C 224.453125 713.855469 223.351562 713.9375 222.253906 713.992188 C 221.152344 714.046875 220.050781 714.074219 218.949219 714.074219 C 217.847656 714.074219 216.746094 714.046875 215.644531 713.992188 C 214.542969 713.9375 213.445312 713.855469 212.347656 713.75 C 211.253906 713.640625 210.160156 713.503906 209.070312 713.34375 C 207.976562 713.183594 206.894531 712.992188 205.8125 712.777344 C 204.730469 712.5625 203.65625 712.324219 202.585938 712.054688 C 201.519531 711.785156 200.457031 711.492188 199.402344 711.171875 C 198.347656 710.851562 197.300781 710.507812 196.265625 710.136719 C 195.226562 709.765625 194.199219 709.367188 193.179688 708.945312 C 192.164062 708.523438 191.15625 708.078125 190.160156 707.609375 C 189.164062 707.136719 188.179688 706.640625 187.207031 706.121094 C 186.234375 705.601562 185.277344 705.058594 184.332031 704.492188 C 183.386719 703.925781 182.457031 703.335938 181.539062 702.722656 C 180.621094 702.113281 179.722656 701.476562 178.835938 700.820312 C 177.953125 700.164062 177.082031 699.488281 176.230469 698.789062 C 175.378906 698.089844 174.546875 697.371094 173.730469 696.628906 C 172.914062 695.890625 172.113281 695.128906 171.335938 694.351562 C 170.554688 693.570312 169.796875 692.773438 169.054688 691.957031 C 168.316406 691.140625 167.597656 690.304688 166.898438 689.453125 C 166.199219 688.601562 165.519531 687.734375 164.863281 686.847656 C 164.207031 685.964844 163.574219 685.0625 162.960938 684.148438 C 162.347656 683.230469 161.757812 682.300781 161.191406 681.355469 C 160.625 680.410156 160.082031 679.449219 159.5625 678.480469 C 159.042969 677.507812 158.550781 676.523438 158.078125 675.527344 C 157.605469 674.53125 157.160156 673.523438 156.738281 672.503906 C 156.316406 671.488281 155.921875 670.460938 155.550781 669.421875 C 155.179688 668.382812 154.832031 667.339844 154.511719 666.285156 C 154.191406 665.230469 153.898438 664.167969 153.632812 663.097656 C 153.363281 662.03125 153.121094 660.953125 152.90625 659.875 C 152.691406 658.792969 152.503906 657.707031 152.34375 656.617188 C 152.179688 655.527344 152.046875 654.433594 151.9375 653.335938 C 151.828125 652.242188 151.75 651.140625 151.695312 650.042969 C 151.640625 648.941406 151.613281 647.839844 151.613281 646.738281 C 151.613281 645.636719 151.640625 644.535156 151.695312 643.433594 C 151.75 642.332031 151.828125 641.234375 151.9375 640.136719 C 152.046875 639.039062 152.179688 637.945312 152.34375 636.855469 C 152.503906 635.765625 152.691406 634.679688 152.90625 633.601562 C 153.121094 632.519531 153.363281 631.445312 153.632812 630.375 C 153.898438 629.308594 154.191406 628.246094 154.511719 627.191406 C 154.832031 626.136719 155.179688 625.089844 155.550781 624.050781 C 155.921875 623.015625 156.316406 621.988281 156.738281 620.96875 C 157.160156 619.949219 157.605469 618.945312 158.078125 617.949219 C 158.550781 616.953125 159.042969 615.96875 159.5625 614.996094 C 160.082031 614.023438 160.625 613.066406 161.191406 612.121094 C 161.757812 611.175781 162.347656 610.242188 162.960938 609.328125 C 163.574219 608.410156 164.207031 607.511719 164.863281 606.625 C 165.519531 605.738281 166.199219 604.871094 166.898438 604.019531 C 167.597656 603.167969 168.316406 602.332031 169.054688 601.515625 C 169.796875 600.699219 170.554688 599.902344 171.335938 599.125 C 172.113281 598.34375 172.914062 597.585938 173.730469 596.84375 C 174.546875 596.105469 175.378906 595.386719 176.230469 594.6875 C 177.082031 593.988281 177.953125 593.308594 178.835938 592.652344 C 179.722656 591.996094 180.621094 591.363281 181.539062 590.75 C 182.457031 590.136719 183.386719 589.546875 184.332031 588.980469 C 185.277344 588.414062 186.234375 587.871094 187.207031 587.351562 C 188.179688 586.832031 189.164062 586.335938 190.160156 585.867188 C 191.15625 585.394531 192.164062 584.949219 193.179688 584.527344 C 194.199219 584.105469 195.226562 583.707031 196.265625 583.335938 C 197.300781 582.964844 198.347656 582.621094 199.402344 582.300781 C 200.457031 581.980469 201.519531 581.6875 202.585938 581.417969 C 203.65625 581.152344 204.730469 580.910156 205.8125 580.695312 C 206.894531 580.480469 207.976562 580.292969 209.070312 580.128906 C 210.160156 579.96875 211.253906 579.832031 212.347656 579.726562 C 213.445312 579.617188 214.542969 579.535156 215.644531 579.484375 C 216.746094 579.429688 217.847656 579.402344 218.949219 579.402344 C 220.050781 579.402344 221.152344 579.429688 222.253906 579.484375 C 223.351562 579.535156 224.453125 579.617188 225.546875 579.726562 C 226.644531 579.832031 227.738281 579.96875 228.828125 580.128906 C 229.917969 580.292969 231.003906 580.480469 232.085938 580.695312 C 233.167969 580.910156 234.242188 581.152344 235.308594 581.417969 C 236.378906 581.6875 237.441406 581.980469 238.496094 582.300781 C 239.550781 582.621094 240.597656 582.964844 241.632812 583.335938 C 242.671875 583.707031 243.699219 584.105469 244.71875 584.527344 C 245.734375 584.949219 246.742188 585.394531 247.738281 585.867188 C 248.734375 586.335938 249.71875 586.832031 250.691406 587.351562 C 251.664062 587.871094 252.621094 588.414062 253.566406 588.980469 C 254.511719 589.546875 255.441406 590.136719 256.359375 590.75 C 257.273438 591.363281 258.175781 591.996094 259.058594 592.652344 C 259.945312 593.308594 260.8125 593.988281 261.664062 594.6875 C 262.519531 595.386719 263.351562 596.105469 264.167969 596.84375 C 264.984375 597.585938 265.78125 598.34375 266.5625 599.125 C 267.339844 599.902344 268.101562 600.699219 268.839844 601.515625 C 269.582031 602.332031 270.300781 603.167969 271 604.019531 C 271.699219 604.871094 272.375 605.738281 273.03125 606.625 C 273.691406 607.511719 274.324219 608.410156 274.9375 609.328125 C 275.546875 610.242188 276.136719 611.175781 276.703125 612.121094 C 277.269531 613.066406 277.8125 614.023438 278.332031 614.996094 C 278.851562 615.96875 279.347656 616.953125 279.820312 617.949219 C 280.289062 618.945312 280.738281 619.949219 281.160156 620.96875 C 281.582031 621.988281 281.976562 623.015625 282.347656 624.050781 C 282.71875 625.089844 283.066406 626.136719 283.386719 627.191406 C 283.703125 628.246094 284 629.308594 284.265625 630.375 C 284.535156 631.445312 284.777344 632.519531 284.992188 633.601562 C 285.207031 634.679688 285.394531 635.765625 285.554688 636.855469 C 285.71875 637.945312 285.851562 639.039062 285.960938 640.136719 C 286.066406 641.234375 286.148438 642.332031 286.203125 643.433594 C 286.257812 644.535156 286.285156 645.636719 286.285156 646.738281 Z M 286.285156 646.738281 " fill-opacity="1" fill-rule="nonzero"/><g transform="matrix(1, 0, 0, 1, 603, 626)"><g clip-path="url(#62eae210dc)"><g fill="#000000" fill-opacity="1"><g transform="translate(1.126211, 130.54801)"><g><path d="M 92.203125 1.28125 L 17.203125 -96.34375 L 17.203125 -26.59375 C 17.203125 -20.539062 17.625 -15.867188 18.46875 -12.578125 C 19.320312 -9.285156 20.570312 -6.867188 22.21875 -5.328125 C 23.863281 -3.796875 25.851562 -2.707031 28.1875 -2.0625 L 28.1875 0 L 8.28125 0 L 8.28125 -2.0625 C 10.71875 -2.8125 12.390625 -4.40625 13.296875 -6.84375 C 14.203125 -9.289062 14.65625 -13.75 14.65625 -20.21875 L 14.65625 -91.234375 C 14.65625 -97.816406 14.066406 -102.300781 12.890625 -104.6875 C 11.722656 -107.082031 9.550781 -108.648438 6.375 -109.390625 L 6.375 -111.46875 L 21.96875 -111.46875 L 91.5625 -21.34375 L 91.5625 -84.875 C 91.5625 -90.925781 91.132812 -95.625 90.28125 -98.96875 C 89.4375 -102.3125 88.21875 -104.722656 86.625 -106.203125 C 85.03125 -107.691406 83.015625 -108.753906 80.578125 -109.390625 L 80.578125 -111.46875 L 100.640625 -111.46875 L 100.640625 -109.390625 C 98.191406 -108.648438 96.515625 -107.082031 95.609375 -104.6875 C 94.710938 -102.300781 94.265625 -97.816406 94.265625 -91.234375 L 94.265625 1.28125 Z M 92.203125 1.28125 "/></g></g></g><g fill="#000000" fill-opacity="1"><g transform="translate(108.131616, 130.54801)"><g><path d="M 34.71875 1.59375 C 26.332031 1.59375 20.171875 -0.953125 16.234375 -6.046875 C 12.304688 -11.140625 10.34375 -18.253906 10.34375 -27.390625 L 10.34375 -56.84375 C 10.34375 -60.5625 10.101562 -63.347656 9.625 -65.203125 C 9.15625 -67.066406 8.46875 -68.421875 7.5625 -69.265625 C 6.65625 -70.117188 5.460938 -70.863281 3.984375 -71.5 L 3.984375 -73.25 L 21.34375 -80.890625 L 22.765625 -79.78125 L 22.765625 -30.25 C 22.765625 -21.226562 24.144531 -14.59375 26.90625 -10.34375 C 29.664062 -6.101562 34.234375 -3.984375 40.609375 -3.984375 C 45.273438 -3.984375 49.726562 -5.28125 53.96875 -7.875 C 58.21875 -10.476562 62.148438 -13.691406 65.765625 -17.515625 L 65.765625 -56.84375 C 65.765625 -60.5625 65.523438 -63.347656 65.046875 -65.203125 C 64.566406 -67.066406 63.875 -68.421875 62.96875 -69.265625 C 62.070312 -70.117188 60.878906 -70.863281 59.390625 -71.5 L 59.390625 -73.25 L 76.75 -80.890625 L 78.1875 -79.78125 L 78.1875 -20.21875 C 78.1875 -13.75 78.632812 -9.289062 79.53125 -6.84375 C 80.4375 -4.40625 82.109375 -2.8125 84.546875 -2.0625 L 84.546875 0 L 71.015625 0 C 69.316406 0 68.015625 -0.472656 67.109375 -1.421875 C 66.210938 -2.378906 65.765625 -4.03125 65.765625 -6.375 L 65.765625 -14.484375 C 61.734375 -10.242188 57.035156 -6.503906 51.671875 -3.265625 C 46.304688 -0.0234375 40.65625 1.59375 34.71875 1.59375 Z M 34.71875 1.59375 "/></g></g></g><g fill="#000000" fill-opacity="1"><g transform="translate(198.258188, 130.54801)"><g><path d="M 30.09375 1.59375 C 25.101562 1.59375 21.175781 -0.128906 18.3125 -3.578125 C 15.445312 -7.035156 14.015625 -12.898438 14.015625 -21.171875 L 14.015625 -77.390625 L 3.828125 -77.390625 L 3.828125 -79.609375 L 24.203125 -99.203125 L 26.4375 -99.203125 L 26.4375 -79.609375 L 50.640625 -79.609375 L 49.84375 -77.390625 L 26.4375 -77.390625 L 26.4375 -21.171875 C 26.4375 -15.765625 27.46875 -11.914062 29.53125 -9.625 C 31.601562 -7.34375 34.335938 -6.203125 37.734375 -6.203125 C 39.960938 -6.203125 42.40625 -6.8125 45.0625 -8.03125 C 47.71875 -9.257812 50.375 -11.410156 53.03125 -14.484375 L 54.453125 -13.0625 C 51.054688 -9.132812 47.316406 -5.707031 43.234375 -2.78125 C 39.148438 0.132812 34.769531 1.59375 30.09375 1.59375 Z M 30.09375 1.59375 "/></g></g></g><g fill="#000000" fill-opacity="1"><g transform="translate(253.034767, 130.54801)"><g><path d="M 5.09375 0 L 5.09375 -2.0625 C 7.539062 -2.8125 9.210938 -4.40625 10.109375 -6.84375 C 11.015625 -9.289062 11.46875 -13.75 11.46875 -20.21875 L 11.46875 -56.84375 C 11.46875 -60.5625 11.226562 -63.347656 10.75 -65.203125 C 10.269531 -67.066406 9.578125 -68.421875 8.671875 -69.265625 C 7.773438 -70.117188 6.582031 -70.863281 5.09375 -71.5 L 5.09375 -73.25 L 22.453125 -80.890625 L 23.890625 -79.78125 L 23.890625 -59.875 C 25.160156 -62.945312 26.828125 -65.8125 28.890625 -68.46875 C 30.960938 -71.125 33.171875 -73.300781 35.515625 -75 C 37.953125 -76.800781 40.628906 -78.207031 43.546875 -79.21875 C 46.460938 -80.226562 49.832031 -80.734375 53.65625 -80.734375 C 56.84375 -80.734375 59.363281 -80.359375 61.21875 -79.609375 C 63.082031 -78.867188 64.015625 -77.8125 64.015625 -76.4375 C 64.015625 -74.738281 63.191406 -72.800781 61.546875 -70.625 C 59.898438 -68.445312 57.644531 -67.359375 54.78125 -67.359375 C 52.65625 -67.359375 49.972656 -67.753906 46.734375 -68.546875 C 43.492188 -69.347656 39.539062 -70.4375 34.875 -71.8125 C 33.382812 -70.75 31.816406 -69.128906 30.171875 -66.953125 C 28.523438 -64.773438 27.144531 -62.359375 26.03125 -59.703125 C 24.914062 -57.054688 24.253906 -54.457031 24.046875 -51.90625 L 23.890625 -51.90625 L 23.890625 -20.21875 C 23.890625 -13.75 24.335938 -9.289062 25.234375 -6.84375 C 26.140625 -4.40625 27.8125 -2.8125 30.25 -2.0625 L 30.25 0 Z M 5.09375 0 "/></g></g></g><g fill="#000000" fill-opacity="1"><g transform="translate(319.913141, 130.54801)"><g><path d="M 5.09375 0 L 5.09375 -2.0625 C 7.539062 -2.8125 9.210938 -4.40625 10.109375 -6.84375 C 11.015625 -9.289062 11.46875 -13.75 11.46875 -20.21875 L 11.46875 -56.84375 C 11.46875 -60.5625 11.253906 -63.347656 10.828125 -65.203125 C 10.398438 -67.066406 9.707031 -68.421875 8.75 -69.265625 C 7.800781 -70.117188 6.582031 -70.863281 5.09375 -71.5 L 5.09375 -73.25 L 22.609375 -80.890625 L 23.890625 -79.78125 L 23.890625 -20.21875 C 23.890625 -13.75 24.363281 -9.289062 25.3125 -6.84375 C 26.269531 -4.40625 27.914062 -2.8125 30.25 -2.0625 L 30.25 0 Z M 7.96875 -99.359375 C 7.96875 -101.910156 8.816406 -104.035156 10.515625 -105.734375 C 12.210938 -107.429688 14.28125 -108.28125 16.71875 -108.28125 C 19.269531 -108.28125 21.367188 -107.429688 23.015625 -105.734375 C 24.660156 -104.035156 25.484375 -101.910156 25.484375 -99.359375 C 25.484375 -97.023438 24.628906 -94.984375 22.921875 -93.234375 C 21.222656 -91.484375 19.15625 -90.609375 16.71875 -90.609375 C 14.28125 -90.609375 12.210938 -91.484375 10.515625 -93.234375 C 8.816406 -94.984375 7.96875 -97.023438 7.96875 -99.359375 Z M 7.96875 -99.359375 "/></g></g></g><g fill="#000000" fill-opacity="1"><g transform="translate(355.755617, 130.54801)"><g><path d="M 29.9375 0 L 29.9375 -2.234375 C 32.59375 -3.078125 34.316406 -4.851562 35.109375 -7.5625 C 35.910156 -10.269531 36.3125 -14.488281 36.3125 -20.21875 L 36.3125 -108.59375 L 31.375 -108.59375 C 24.257812 -108.59375 18.679688 -107.398438 14.640625 -105.015625 C 10.609375 -102.628906 7.109375 -98.25 4.140625 -91.875 L 2.234375 -92.203125 L 3.1875 -111.46875 L 86.140625 -111.46875 L 87.09375 -92.203125 L 85.1875 -91.875 C 82.21875 -98.25 78.710938 -102.628906 74.671875 -105.015625 C 70.640625 -107.398438 65.070312 -108.59375 57.96875 -108.59375 L 53.34375 -108.59375 L 53.34375 -20.21875 C 53.34375 -14.488281 53.738281 -10.269531 54.53125 -7.5625 C 55.332031 -4.851562 57.0625 -3.078125 59.71875 -2.234375 L 59.71875 0 Z M 29.9375 0 "/></g></g></g><g fill="#000000" fill-opacity="1"><g transform="translate(444.926777, 130.54801)"><g><path d="M 4.453125 0 L 4.453125 -2.234375 C 7.109375 -3.078125 8.832031 -4.851562 9.625 -7.5625 C 10.425781 -10.269531 10.828125 -14.488281 10.828125 -20.21875 L 10.828125 -56.84375 C 10.828125 -61.519531 10.269531 -64.597656 9.15625 -66.078125 C 8.039062 -67.566406 6.472656 -68.734375 4.453125 -69.578125 L 4.453125 -71.8125 L 25.484375 -81.046875 L 27.0625 -79.78125 L 27.0625 -60.515625 C 29.507812 -66.242188 33.382812 -70.910156 38.6875 -74.515625 C 41.664062 -76.640625 44.71875 -78.207031 47.84375 -79.21875 C 50.976562 -80.226562 54.457031 -80.734375 58.28125 -80.734375 C 61.039062 -80.734375 63.425781 -80.359375 65.4375 -79.609375 C 67.457031 -78.867188 68.46875 -77.648438 68.46875 -75.953125 C 68.46875 -74.785156 68.066406 -73.378906 67.265625 -71.734375 C 66.472656 -70.085938 65.28125 -68.65625 63.6875 -67.4375 C 62.101562 -66.21875 60.085938 -65.609375 57.640625 -65.609375 C 55.410156 -65.609375 52.675781 -66.003906 49.4375 -66.796875 C 46.195312 -67.597656 42.03125 -68.789062 36.9375 -70.375 C 34.925781 -68.675781 32.832031 -66.179688 30.65625 -62.890625 C 28.476562 -59.609375 27.28125 -55.945312 27.0625 -51.90625 L 27.0625 -20.21875 C 27.0625 -14.488281 27.457031 -10.269531 28.25 -7.5625 C 29.050781 -4.851562 30.78125 -3.078125 33.4375 -2.234375 L 33.4375 0 Z M 4.453125 0 "/></g></g></g><g fill="#000000" fill-opacity="1"><g transform="translate(516.741407, 130.54801)"><g><path d="M 65.28125 0 C 61.039062 0 58.921875 -2.125 58.921875 -6.375 L 58.921875 -32.640625 C 57.429688 -26.484375 55.195312 -20.800781 52.21875 -15.59375 C 49.25 -10.394531 45.585938 -6.226562 41.234375 -3.09375 C 36.890625 0.0273438 31.957031 1.59375 26.4375 1.59375 C 20.59375 1.59375 15.519531 -0.207031 11.21875 -3.8125 C 6.925781 -7.425781 4.78125 -12.578125 4.78125 -19.265625 C 4.78125 -24.785156 6.453125 -29.269531 9.796875 -32.71875 C 13.140625 -36.164062 17.570312 -39.054688 23.09375 -41.390625 C 28.613281 -43.734375 34.660156 -45.804688 41.234375 -47.609375 L 58.921875 -52.703125 C 58.804688 -60.554688 56.8125 -66.15625 52.9375 -69.5 C 49.070312 -72.84375 44.164062 -74.515625 38.21875 -74.515625 C 33.757812 -74.515625 29.351562 -73.476562 25 -71.40625 C 20.644531 -69.34375 16.453125 -65.867188 12.421875 -60.984375 L 10.828125 -62.421875 C 15.285156 -67.941406 20.539062 -72.375 26.59375 -75.71875 C 32.644531 -79.0625 39.28125 -80.734375 46.5 -80.734375 C 56.15625 -80.734375 63.289062 -78.210938 67.90625 -73.171875 C 72.53125 -68.128906 74.84375 -60.722656 74.84375 -50.953125 L 74.84375 -20.21875 C 74.84375 -14.488281 75.238281 -10.269531 76.03125 -7.5625 C 76.832031 -4.851562 78.554688 -3.078125 81.203125 -2.234375 L 81.203125 0 Z M 19.578125 -24.84375 C 19.578125 -19.632812 21.144531 -15.863281 24.28125 -13.53125 C 27.414062 -11.195312 30.785156 -10.03125 34.390625 -10.03125 C 38.316406 -10.03125 41.789062 -11.222656 44.8125 -13.609375 C 47.84375 -16.003906 50.394531 -19.082031 52.46875 -22.84375 C 54.539062 -26.613281 56.132812 -30.566406 57.25 -34.703125 C 58.363281 -38.847656 58.921875 -42.726562 58.921875 -46.34375 L 58.921875 -50.484375 L 41.875 -45.546875 C 39.96875 -45.015625 37.765625 -44.242188 35.265625 -43.234375 C 32.773438 -42.222656 30.332031 -40.921875 27.9375 -39.328125 C 25.550781 -37.734375 23.5625 -35.742188 21.96875 -33.359375 C 20.375 -30.972656 19.578125 -28.132812 19.578125 -24.84375 Z M 19.578125 -24.84375 "/></g></g></g><g fill="#000000" fill-opacity="1"><g transform="translate(601.135545, 130.54801)"><g><path d="M 42.671875 1.59375 C 36.203125 1.59375 30.070312 0.105469 24.28125 -2.859375 C 18.5 -5.835938 13.828125 -10.191406 10.265625 -15.921875 C 6.710938 -21.648438 4.9375 -28.601562 4.9375 -36.78125 C 4.9375 -43.46875 6.101562 -49.519531 8.4375 -54.9375 C 10.769531 -60.351562 13.976562 -64.96875 18.0625 -68.78125 C 22.15625 -72.601562 26.773438 -75.550781 31.921875 -77.625 C 37.078125 -79.695312 42.410156 -80.734375 47.921875 -80.734375 C 56.421875 -80.734375 63.320312 -79.773438 68.625 -77.859375 C 73.9375 -75.953125 76.59375 -73.882812 76.59375 -71.65625 C 76.59375 -70.0625 76.007812 -68.46875 74.84375 -66.875 C 73.675781 -65.28125 72.269531 -63.953125 70.625 -62.890625 C 68.976562 -61.835938 67.359375 -61.3125 65.765625 -61.3125 C 63.535156 -61.3125 60.535156 -62.632812 56.765625 -65.28125 C 52.992188 -67.9375 48.03125 -72.1875 41.875 -78.03125 C 37.3125 -77.382812 33.304688 -75.550781 29.859375 -72.53125 C 26.410156 -69.507812 23.753906 -65.769531 21.890625 -61.3125 C 20.035156 -56.851562 19.109375 -52.070312 19.109375 -46.96875 C 19.109375 -40.070312 20.460938 -33.914062 23.171875 -28.5 C 25.878906 -23.082031 29.695312 -18.863281 34.625 -15.84375 C 39.5625 -12.820312 45.375 -11.3125 52.0625 -11.3125 C 58.007812 -11.3125 63.265625 -12.476562 67.828125 -14.8125 C 72.398438 -17.144531 76.328125 -20.171875 79.609375 -23.890625 L 81.046875 -22.296875 C 78.609375 -18.578125 75.582031 -14.882812 71.96875 -11.21875 C 68.363281 -7.5625 64.117188 -4.507812 59.234375 -2.0625 C 54.347656 0.371094 48.828125 1.59375 42.671875 1.59375 Z M 42.671875 1.59375 "/></g></g></g><g fill="#000000" fill-opacity="1"><g transform="translate(685.211203, 130.54801)"><g><path d="M 4.78125 0 L 4.78125 -2.234375 C 7.4375 -3.078125 9.160156 -4.851562 9.953125 -7.5625 C 10.742188 -10.269531 11.140625 -14.488281 11.140625 -20.21875 L 11.140625 -104.609375 C 11.140625 -109.285156 10.582031 -112.363281 9.46875 -113.84375 C 8.351562 -115.332031 6.789062 -116.503906 4.78125 -117.359375 L 4.78125 -119.578125 L 25.796875 -128.828125 L 27.390625 -127.546875 L 27.390625 -35.984375 L 52.390625 -60.828125 C 57.484375 -65.921875 60.296875 -69.953125 60.828125 -72.921875 C 61.359375 -75.898438 60.828125 -77.65625 59.234375 -78.1875 L 59.234375 -79.609375 L 79.453125 -79.609375 L 79.453125 -77.390625 C 76.910156 -76.640625 74.046875 -75.441406 70.859375 -73.796875 C 67.671875 -72.160156 64.0625 -69.320312 60.03125 -65.28125 L 49.84375 -55.09375 L 68.796875 -20.859375 C 71.867188 -15.335938 74.8125 -10.851562 77.625 -7.40625 C 80.4375 -3.957031 83.753906 -2.234375 87.578125 -2.234375 L 87.578125 0 L 74.84375 0 C 70.914062 0 67.09375 -1.40625 63.375 -4.21875 C 59.65625 -7.03125 55.882812 -11.992188 52.0625 -19.109375 L 38.859375 -44.265625 L 27.390625 -32.796875 L 27.390625 -20.21875 C 27.390625 -14.488281 27.785156 -10.269531 28.578125 -7.5625 C 29.378906 -4.851562 31.101562 -3.078125 33.75 -2.234375 L 33.75 0 Z M 4.78125 0 "/></g></g></g></g></g><g transform="matrix(1, 0, 0, 1, 696, 806)"><g clip-path="url(#ce40a09f64)"><g fill="#000000" fill-opacity="1"><g transform="translate(0.706083, 64.819127)"><g><path d="M 27.109375 0.78125 C 22.671875 0.78125 18.644531 -0.25 15.03125 -2.3125 C 11.414062 -4.382812 8.585938 -7.191406 6.546875 -10.734375 C 4.503906 -14.285156 3.484375 -18.238281 3.484375 -22.59375 C 3.484375 -26.9375 4.503906 -30.878906 6.546875 -34.421875 C 8.585938 -37.972656 11.414062 -40.78125 15.03125 -42.84375 C 18.644531 -44.914062 22.671875 -45.953125 27.109375 -45.953125 C 30.671875 -45.953125 33.925781 -45.226562 36.875 -43.78125 C 39.820312 -42.34375 42.296875 -40.414062 44.296875 -38 C 46.296875 -35.59375 47.6875 -32.953125 48.46875 -30.078125 L 43.625 -30.078125 C 42.332031 -33.429688 40.296875 -36.160156 37.515625 -38.265625 C 34.742188 -40.367188 31.273438 -41.421875 27.109375 -41.421875 C 23.578125 -41.421875 20.378906 -40.601562 17.515625 -38.96875 C 14.660156 -37.34375 12.414062 -35.085938 10.78125 -32.203125 C 9.144531 -29.316406 8.328125 -26.113281 8.328125 -22.59375 C 8.328125 -19.0625 9.144531 -15.851562 10.78125 -12.96875 C 12.414062 -10.082031 14.660156 -7.820312 17.515625 -6.1875 C 20.378906 -4.5625 23.578125 -3.75 27.109375 -3.75 C 31.492188 -3.75 35.09375 -4.789062 37.90625 -6.875 C 40.726562 -8.957031 42.742188 -11.695312 43.953125 -15.09375 L 48.78125 -15.09375 C 47.96875 -12.175781 46.570312 -9.507812 44.59375 -7.09375 C 42.613281 -4.6875 40.128906 -2.769531 37.140625 -1.34375 C 34.148438 0.0703125 30.804688 0.78125 27.109375 0.78125 Z M 27.109375 0.78125 "/></g></g></g><g fill="#000000" fill-opacity="1"><g transform="translate(52.647415, 64.819127)"><g><path d="M 19.03125 -33.046875 C 21.789062 -33.046875 24.210938 -32.492188 26.296875 -31.390625 C 28.378906 -30.296875 30 -28.757812 31.15625 -26.78125 C 32.320312 -24.800781 32.90625 -22.519531 32.90625 -19.9375 L 32.90625 0 L 29.5625 0 L 28.390625 -4.390625 L 28.078125 -4.390625 C 26.992188 -3.015625 25.484375 -1.804688 23.546875 -0.765625 C 21.617188 0.261719 19.191406 0.78125 16.265625 0.78125 C 12.222656 0.78125 9.113281 -0.164062 6.9375 -2.0625 C 4.757812 -3.957031 3.671875 -6.320312 3.671875 -9.15625 C 3.671875 -12.175781 4.832031 -14.617188 7.15625 -16.484375 C 9.476562 -18.359375 12.921875 -19.296875 17.484375 -19.296875 L 28.390625 -19.296875 L 28.390625 -19.875 C 28.390625 -22.625 27.5625 -24.796875 25.90625 -26.390625 C 24.25 -27.984375 21.957031 -28.78125 19.03125 -28.78125 C 16.582031 -28.78125 14.601562 -28.226562 13.09375 -27.125 C 11.59375 -26.03125 10.519531 -24.625 9.875 -22.90625 L 5.359375 -22.90625 C 5.960938 -25.789062 7.476562 -28.203125 9.90625 -30.140625 C 12.332031 -32.078125 15.375 -33.046875 19.03125 -33.046875 Z M 16.390625 -3.484375 C 20.222656 -3.484375 23.179688 -4.34375 25.265625 -6.0625 C 27.347656 -7.78125 28.390625 -9.972656 28.390625 -12.640625 L 28.390625 -15.171875 L 18.265625 -15.171875 C 14.734375 -15.171875 12.171875 -14.640625 10.578125 -13.578125 C 8.992188 -12.523438 8.203125 -11.078125 8.203125 -9.234375 C 8.203125 -7.503906 8.890625 -6.113281 10.265625 -5.0625 C 11.640625 -4.007812 13.679688 -3.484375 16.390625 -3.484375 Z M 16.390625 -3.484375 "/></g></g></g><g fill="#000000" fill-opacity="1"><g transform="translate(90.845263, 64.819127)"><g><path d="M 10.453125 0 L 5.9375 0 L 5.9375 -45.171875 L 10.453125 -45.171875 Z M 10.453125 0 "/></g></g></g><g fill="#000000" fill-opacity="1"><g transform="translate(107.234205, 64.819127)"><g><path d="M 20.578125 0.78125 C 17.484375 0.78125 14.613281 0.0585938 11.96875 -1.375 C 9.320312 -2.820312 7.210938 -4.835938 5.640625 -7.421875 C 4.078125 -10.003906 3.296875 -12.910156 3.296875 -16.140625 C 3.296875 -19.359375 4.078125 -22.257812 5.640625 -24.84375 C 7.210938 -27.425781 9.320312 -29.4375 11.96875 -30.875 C 14.613281 -32.320312 17.484375 -33.046875 20.578125 -33.046875 C 23.679688 -33.046875 26.554688 -32.320312 29.203125 -30.875 C 31.847656 -29.4375 33.953125 -27.425781 35.515625 -24.84375 C 37.085938 -22.257812 37.875 -19.359375 37.875 -16.140625 C 37.875 -12.910156 37.085938 -10.003906 35.515625 -7.421875 C 33.953125 -4.835938 31.847656 -2.820312 29.203125 -1.375 C 26.554688 0.0585938 23.679688 0.78125 20.578125 0.78125 Z M 20.578125 -3.484375 C 22.898438 -3.484375 25.039062 -4.007812 27 -5.0625 C 28.957031 -6.113281 30.503906 -7.609375 31.640625 -9.546875 C 32.785156 -11.484375 33.359375 -13.679688 33.359375 -16.140625 C 33.359375 -18.585938 32.785156 -20.78125 31.640625 -22.71875 C 30.503906 -24.65625 28.957031 -26.148438 27 -27.203125 C 25.039062 -28.253906 22.898438 -28.78125 20.578125 -28.78125 C 18.253906 -28.78125 16.113281 -28.253906 14.15625 -27.203125 C 12.207031 -26.148438 10.660156 -24.65625 9.515625 -22.71875 C 8.378906 -20.78125 7.8125 -18.585938 7.8125 -16.140625 C 7.8125 -13.679688 8.378906 -11.484375 9.515625 -9.546875 C 10.660156 -7.609375 12.207031 -6.113281 14.15625 -5.0625 C 16.113281 -4.007812 18.253906 -3.484375 20.578125 -3.484375 Z M 20.578125 -3.484375 "/></g></g></g><g fill="#000000" fill-opacity="1"><g transform="translate(148.400131, 64.819127)"><g><path d="M 5.609375 0 L 5.609375 -32.265625 L 8.96875 -32.265625 L 10.125 -27.875 L 10.453125 -27.875 C 11.703125 -29.425781 13.25 -30.675781 15.09375 -31.625 C 16.945312 -32.570312 19.078125 -33.046875 21.484375 -33.046875 C 22.773438 -33.046875 23.832031 -32.914062 24.65625 -32.65625 L 24.65625 -28.140625 C 23.625 -28.390625 22.613281 -28.515625 21.625 -28.515625 C 17.832031 -28.515625 14.96875 -27.554688 13.03125 -25.640625 C 11.09375 -23.734375 10.125 -20.738281 10.125 -16.65625 L 10.125 0 Z M 5.609375 0 "/></g></g></g><g fill="#000000" fill-opacity="1"><g transform="translate(174.467583, 64.819127)"><g><path d="M 10.125 0 L 5.609375 0 L 5.609375 -32.265625 L 10.125 -32.265625 Z M 7.875 -37.234375 C 6.925781 -37.234375 6.148438 -37.523438 5.546875 -38.109375 C 4.941406 -38.691406 4.640625 -39.410156 4.640625 -40.265625 C 4.640625 -41.128906 4.941406 -41.859375 5.546875 -42.453125 C 6.148438 -43.054688 6.925781 -43.359375 7.875 -43.359375 C 8.8125 -43.359375 9.582031 -43.054688 10.1875 -42.453125 C 10.789062 -41.859375 11.09375 -41.128906 11.09375 -40.265625 C 11.09375 -39.410156 10.789062 -38.691406 10.1875 -38.109375 C 9.582031 -37.523438 8.8125 -37.234375 7.875 -37.234375 Z M 7.875 -37.234375 "/></g></g></g><g fill="#000000" fill-opacity="1"><g transform="translate(190.211297, 64.819127)"><g><path d="M 37.234375 -17.09375 C 37.234375 -15.9375 37.125 -14.882812 36.90625 -13.9375 L 7.9375 -13.9375 C 8.40625 -10.707031 9.789062 -8.15625 12.09375 -6.28125 C 14.394531 -4.414062 17.222656 -3.484375 20.578125 -3.484375 C 25.441406 -3.484375 28.992188 -5.117188 31.234375 -8.390625 L 35.875 -8.390625 C 34.71875 -5.679688 32.78125 -3.472656 30.0625 -1.765625 C 27.351562 -0.0664062 24.128906 0.78125 20.390625 0.78125 C 17.296875 0.78125 14.4375 0.0703125 11.8125 -1.34375 C 9.1875 -2.769531 7.109375 -4.757812 5.578125 -7.3125 C 4.054688 -9.875 3.296875 -12.816406 3.296875 -16.140625 C 3.296875 -19.359375 4.085938 -22.257812 5.671875 -24.84375 C 7.265625 -27.425781 9.375 -29.4375 12 -30.875 C 14.625 -32.320312 17.441406 -33.046875 20.453125 -33.046875 C 23.421875 -33.046875 26.195312 -32.332031 28.78125 -30.90625 C 31.363281 -29.488281 33.414062 -27.5625 34.9375 -25.125 C 36.46875 -22.695312 37.234375 -20.019531 37.234375 -17.09375 Z M 20.390625 -28.78125 C 18.328125 -28.78125 16.390625 -28.335938 14.578125 -27.453125 C 12.773438 -26.578125 11.28125 -25.320312 10.09375 -23.6875 C 8.914062 -22.050781 8.195312 -20.175781 7.9375 -18.0625 L 32.71875 -18.0625 C 32.539062 -20.09375 31.882812 -21.921875 30.75 -23.546875 C 29.613281 -25.179688 28.128906 -26.460938 26.296875 -27.390625 C 24.460938 -28.316406 22.492188 -28.78125 20.390625 -28.78125 Z M 20.390625 -28.78125 "/></g></g></g><g fill="#000000" fill-opacity="1"><g transform="translate(230.731996, 64.819127)"><g/></g></g><g fill="#000000" fill-opacity="1"><g transform="translate(248.798537, 64.819127)"><g><path d="M 27.109375 0.78125 C 22.671875 0.78125 18.644531 -0.25 15.03125 -2.3125 C 11.414062 -4.382812 8.585938 -7.191406 6.546875 -10.734375 C 4.503906 -14.285156 3.484375 -18.238281 3.484375 -22.59375 C 3.484375 -26.9375 4.503906 -30.878906 6.546875 -34.421875 C 8.585938 -37.972656 11.414062 -40.78125 15.03125 -42.84375 C 18.644531 -44.914062 22.671875 -45.953125 27.109375 -45.953125 C 30.671875 -45.953125 33.925781 -45.226562 36.875 -43.78125 C 39.820312 -42.34375 42.296875 -40.414062 44.296875 -38 C 46.296875 -35.59375 47.6875 -32.953125 48.46875 -30.078125 L 43.625 -30.078125 C 42.332031 -33.429688 40.296875 -36.160156 37.515625 -38.265625 C 34.742188 -40.367188 31.273438 -41.421875 27.109375 -41.421875 C 23.578125 -41.421875 20.378906 -40.601562 17.515625 -38.96875 C 14.660156 -37.34375 12.414062 -35.085938 10.78125 -32.203125 C 9.144531 -29.316406 8.328125 -26.113281 8.328125 -22.59375 C 8.328125 -19.0625 9.144531 -15.851562 10.78125 -12.96875 C 12.414062 -10.082031 14.660156 -7.820312 17.515625 -6.1875 C 20.378906 -4.5625 23.578125 -3.75 27.109375 -3.75 C 31.492188 -3.75 35.09375 -4.789062 37.90625 -6.875 C 40.726562 -8.957031 42.742188 -11.695312 43.953125 -15.09375 L 48.78125 -15.09375 C 47.96875 -12.175781 46.570312 -9.507812 44.59375 -7.09375 C 42.613281 -4.6875 40.128906 -2.769531 37.140625 -1.34375 C 34.148438 0.0703125 30.804688 0.78125 27.109375 0.78125 Z M 27.109375 0.78125 "/></g></g></g><g fill="#000000" fill-opacity="1"><g transform="translate(300.739881, 64.819127)"><g><path d="M 19.03125 -33.046875 C 21.789062 -33.046875 24.210938 -32.492188 26.296875 -31.390625 C 28.378906 -30.296875 30 -28.757812 31.15625 -26.78125 C 32.320312 -24.800781 32.90625 -22.519531 32.90625 -19.9375 L 32.90625 0 L 29.5625 0 L 28.390625 -4.390625 L 28.078125 -4.390625 C 26.992188 -3.015625 25.484375 -1.804688 23.546875 -0.765625 C 21.617188 0.261719 19.191406 0.78125 16.265625 0.78125 C 12.222656 0.78125 9.113281 -0.164062 6.9375 -2.0625 C 4.757812 -3.957031 3.671875 -6.320312 3.671875 -9.15625 C 3.671875 -12.175781 4.832031 -14.617188 7.15625 -16.484375 C 9.476562 -18.359375 12.921875 -19.296875 17.484375 -19.296875 L 28.390625 -19.296875 L 28.390625 -19.875 C 28.390625 -22.625 27.5625 -24.796875 25.90625 -26.390625 C 24.25 -27.984375 21.957031 -28.78125 19.03125 -28.78125 C 16.582031 -28.78125 14.601562 -28.226562 13.09375 -27.125 C 11.59375 -26.03125 10.519531 -24.625 9.875 -22.90625 L 5.359375 -22.90625 C 5.960938 -25.789062 7.476562 -28.203125 9.90625 -30.140625 C 12.332031 -32.078125 15.375 -33.046875 19.03125 -33.046875 Z M 16.390625 -3.484375 C 20.222656 -3.484375 23.179688 -4.34375 25.265625 -6.0625 C 27.347656 -7.78125 28.390625 -9.972656 28.390625 -12.640625 L 28.390625 -15.171875 L 18.265625 -15.171875 C 14.734375 -15.171875 12.171875 -14.640625 10.578125 -13.578125 C 8.992188 -12.523438 8.203125 -11.078125 8.203125 -9.234375 C 8.203125 -7.503906 8.890625 -6.113281 10.265625 -5.0625 C 11.640625 -4.007812 13.679688 -3.484375 16.390625 -3.484375 Z M 16.390625 -3.484375 "/></g></g></g><g fill="#000000" fill-opacity="1"><g transform="translate(338.937729, 64.819127)"><g><path d="M 10.453125 0 L 5.9375 0 L 5.9375 -45.171875 L 10.453125 -45.171875 Z M 10.453125 0 "/></g></g></g><g fill="#000000" fill-opacity="1"><g transform="translate(355.326671, 64.819127)"><g><path d="M 20.578125 0.78125 C 17.566406 0.78125 14.738281 0.0585938 12.09375 -1.375 C 9.445312 -2.820312 7.316406 -4.835938 5.703125 -7.421875 C 4.097656 -10.003906 3.296875 -12.910156 3.296875 -16.140625 C 3.296875 -19.359375 4.097656 -22.257812 5.703125 -24.84375 C 7.316406 -27.425781 9.445312 -29.4375 12.09375 -30.875 C 14.738281 -32.320312 17.566406 -33.046875 20.578125 -33.046875 C 23.335938 -33.046875 25.859375 -32.472656 28.140625 -31.328125 C 30.421875 -30.191406 32.289062 -28.6875 33.75 -26.8125 C 35.207031 -24.9375 36.15625 -22.945312 36.59375 -20.84375 L 32.078125 -20.84375 C 31.171875 -23.382812 29.738281 -25.34375 27.78125 -26.71875 C 25.820312 -28.09375 23.421875 -28.78125 20.578125 -28.78125 C 18.253906 -28.78125 16.113281 -28.253906 14.15625 -27.203125 C 12.207031 -26.148438 10.660156 -24.65625 9.515625 -22.71875 C 8.378906 -20.78125 7.8125 -18.585938 7.8125 -16.140625 C 7.8125 -13.679688 8.378906 -11.484375 9.515625 -9.546875 C 10.660156 -7.609375 12.207031 -6.113281 14.15625 -5.0625 C 16.113281 -4.007812 18.253906 -3.484375 20.578125 -3.484375 C 23.421875 -3.484375 25.832031 -4.171875 27.8125 -5.546875 C 29.789062 -6.921875 31.210938 -8.878906 32.078125 -11.421875 L 36.59375 -11.421875 C 36.113281 -9.316406 35.15625 -7.328125 33.71875 -5.453125 C 32.28125 -3.578125 30.421875 -2.066406 28.140625 -0.921875 C 25.859375 0.210938 23.335938 0.78125 20.578125 0.78125 Z M 20.578125 0.78125 "/></g></g></g><g fill="#000000" fill-opacity="1"><g transform="translate(394.879533, 64.819127)"><g><path d="M 20.265625 0.78125 C 17.421875 0.78125 14.859375 0.144531 12.578125 -1.125 C 10.296875 -2.394531 8.507812 -4.203125 7.21875 -6.546875 C 5.9375 -8.890625 5.296875 -11.632812 5.296875 -14.78125 L 5.296875 -32.265625 L 9.8125 -32.265625 L 9.8125 -14.96875 C 9.8125 -11.351562 10.800781 -8.535156 12.78125 -6.515625 C 14.757812 -4.492188 17.40625 -3.484375 20.71875 -3.484375 C 24.195312 -3.484375 26.96875 -4.492188 29.03125 -6.515625 C 31.101562 -8.535156 32.140625 -11.351562 32.140625 -14.96875 L 32.140625 -32.265625 L 36.65625 -32.265625 L 36.65625 0 L 33.296875 0 L 32.140625 -4.390625 L 31.8125 -4.390625 C 30.820312 -2.972656 29.359375 -1.753906 27.421875 -0.734375 C 25.484375 0.273438 23.097656 0.78125 20.265625 0.78125 Z M 20.265625 0.78125 "/></g></g></g><g fill="#000000" fill-opacity="1"><g transform="translate(437.142355, 64.819127)"><g><path d="M 10.453125 0 L 5.9375 0 L 5.9375 -45.171875 L 10.453125 -45.171875 Z M 10.453125 0 "/></g></g></g><g fill="#000000" fill-opacity="1"><g transform="translate(453.531274, 64.819127)"><g><path d="M 19.03125 -33.046875 C 21.789062 -33.046875 24.210938 -32.492188 26.296875 -31.390625 C 28.378906 -30.296875 30 -28.757812 31.15625 -26.78125 C 32.320312 -24.800781 32.90625 -22.519531 32.90625 -19.9375 L 32.90625 0 L 29.5625 0 L 28.390625 -4.390625 L 28.078125 -4.390625 C 26.992188 -3.015625 25.484375 -1.804688 23.546875 -0.765625 C 21.617188 0.261719 19.191406 0.78125 16.265625 0.78125 C 12.222656 0.78125 9.113281 -0.164062 6.9375 -2.0625 C 4.757812 -3.957031 3.671875 -6.320312 3.671875 -9.15625 C 3.671875 -12.175781 4.832031 -14.617188 7.15625 -16.484375 C 9.476562 -18.359375 12.921875 -19.296875 17.484375 -19.296875 L 28.390625 -19.296875 L 28.390625 -19.875 C 28.390625 -22.625 27.5625 -24.796875 25.90625 -26.390625 C 24.25 -27.984375 21.957031 -28.78125 19.03125 -28.78125 C 16.582031 -28.78125 14.601562 -28.226562 13.09375 -27.125 C 11.59375 -26.03125 10.519531 -24.625 9.875 -22.90625 L 5.359375 -22.90625 C 5.960938 -25.789062 7.476562 -28.203125 9.90625 -30.140625 C 12.332031 -32.078125 15.375 -33.046875 19.03125 -33.046875 Z M 16.390625 -3.484375 C 20.222656 -3.484375 23.179688 -4.34375 25.265625 -6.0625 C 27.347656 -7.78125 28.390625 -9.972656 28.390625 -12.640625 L 28.390625 -15.171875 L 18.265625 -15.171875 C 14.734375 -15.171875 12.171875 -14.640625 10.578125 -13.578125 C 8.992188 -12.523438 8.203125 -11.078125 8.203125 -9.234375 C 8.203125 -7.503906 8.890625 -6.113281 10.265625 -5.0625 C 11.640625 -4.007812 13.679688 -3.484375 16.390625 -3.484375 Z M 16.390625 -3.484375 "/></g></g></g><g fill="#000000" fill-opacity="1"><g transform="translate(491.729122, 64.819127)"><g><path d="M 19.6875 0.78125 C 16.414062 0.78125 13.8125 -0.226562 11.875 -2.25 C 9.9375 -4.28125 8.96875 -7.101562 8.96875 -10.71875 L 8.96875 -28 L 1.9375 -28 L 1.9375 -32.265625 L 5.546875 -32.265625 C 8.304688 -32.265625 9.6875 -33.640625 9.6875 -36.390625 L 9.6875 -40.84375 L 13.484375 -40.84375 L 13.484375 -32.265625 L 23.484375 -32.265625 L 23.484375 -28 L 13.484375 -28 L 13.484375 -10.71875 C 13.484375 -8.300781 14.03125 -6.488281 15.125 -5.28125 C 16.226562 -4.082031 17.8125 -3.484375 19.875 -3.484375 C 21.207031 -3.484375 22.410156 -3.71875 23.484375 -4.1875 L 23.484375 -0.0625 C 22.410156 0.496094 21.144531 0.78125 19.6875 0.78125 Z M 19.6875 0.78125 "/></g></g></g><g fill="#000000" fill-opacity="1"><g transform="translate(518.377313, 64.819127)"><g><path d="M 20.578125 0.78125 C 17.484375 0.78125 14.613281 0.0585938 11.96875 -1.375 C 9.320312 -2.820312 7.210938 -4.835938 5.640625 -7.421875 C 4.078125 -10.003906 3.296875 -12.910156 3.296875 -16.140625 C 3.296875 -19.359375 4.078125 -22.257812 5.640625 -24.84375 C 7.210938 -27.425781 9.320312 -29.4375 11.96875 -30.875 C 14.613281 -32.320312 17.484375 -33.046875 20.578125 -33.046875 C 23.679688 -33.046875 26.554688 -32.320312 29.203125 -30.875 C 31.847656 -29.4375 33.953125 -27.425781 35.515625 -24.84375 C 37.085938 -22.257812 37.875 -19.359375 37.875 -16.140625 C 37.875 -12.910156 37.085938 -10.003906 35.515625 -7.421875 C 33.953125 -4.835938 31.847656 -2.820312 29.203125 -1.375 C 26.554688 0.0585938 23.679688 0.78125 20.578125 0.78125 Z M 20.578125 -3.484375 C 22.898438 -3.484375 25.039062 -4.007812 27 -5.0625 C 28.957031 -6.113281 30.503906 -7.609375 31.640625 -9.546875 C 32.785156 -11.484375 33.359375 -13.679688 33.359375 -16.140625 C 33.359375 -18.585938 32.785156 -20.78125 31.640625 -22.71875 C 30.503906 -24.65625 28.957031 -26.148438 27 -27.203125 C 25.039062 -28.253906 22.898438 -28.78125 20.578125 -28.78125 C 18.253906 -28.78125 16.113281 -28.253906 14.15625 -27.203125 C 12.207031 -26.148438 10.660156 -24.65625 9.515625 -22.71875 C 8.378906 -20.78125 7.8125 -18.585938 7.8125 -16.140625 C 7.8125 -13.679688 8.378906 -11.484375 9.515625 -9.546875 C 10.660156 -7.609375 12.207031 -6.113281 14.15625 -5.0625 C 16.113281 -4.007812 18.253906 -3.484375 20.578125 -3.484375 Z M 20.578125 -3.484375 "/></g></g></g><g fill="#000000" fill-opacity="1"><g transform="translate(559.54324, 64.819127)"><g><path d="M 5.609375 0 L 5.609375 -32.265625 L 8.96875 -32.265625 L 10.125 -27.875 L 10.453125 -27.875 C 11.703125 -29.425781 13.25 -30.675781 15.09375 -31.625 C 16.945312 -32.570312 19.078125 -33.046875 21.484375 -33.046875 C 22.773438 -33.046875 23.832031 -32.914062 24.65625 -32.65625 L 24.65625 -28.140625 C 23.625 -28.390625 22.613281 -28.515625 21.625 -28.515625 C 17.832031 -28.515625 14.96875 -27.554688 13.03125 -25.640625 C 11.09375 -23.734375 10.125 -20.738281 10.125 -16.65625 L 10.125 0 Z M 5.609375 0 "/></g></g></g></g></g></svg>