<?xml version="1.0" encoding="UTF-8" standalone="no"?>
<!-- Filename: 00502ac6c7f7e9e91a8c52e4caca05bc9de5780af4efa860125db636cfb4b0f1.svg -->
<!-- Created with https://svgstud.io -->
<svg
  version="1.1"
  xmlns="http://www.w3.org/2000/svg"
  xmlns:xlink="http://www.w3.org/1999/xlink"
  xmlns:svg="http://www.w3.org/2000/svg"
  xmlns:rdf="http://www.w3.org/1999/02/22-rdf-syntax-ns#"
  xmlns:cc="http://creativecommons.org/ns#"
  xmlns:dc="http://purl.org/dc/elements/1.1/"
  viewBox="0 0 768 768"
  width="768"
  height="768"
  role="img"
  aria-labelledby="titleID descID"
>
  <title id="titleID">WerAuto logo</title>
  <desc id="descID">AI-generated SVG illustration: WerAuto logo, created on https://svgstud.io</desc>

  <rect width="100%" height="100%" fill="white" />

  <metadata id="copyright">
    Created by https://svgstud.io and licensed under CC-BY-SA 4.0 license. Please attribute https://svgstud.io
  </metadata>
  <metadata id="prompt">
    WerAuto logo
  </metadata>
  <metadata id="version">
    7
  </metadata>
  <metadata>
    <rdf:RDF
      xmlns:rdf="http://www.w3.org/1999/02/22-rdf-syntax-ns#"
      xmlns:cc="http://creativecommons.org/ns#"
      xmlns:dc="http://purl.org/dc/elements/1.1/"
    >
      <cc:Work rdf:about="">
        <cc:license rdf:resource="http://creativecommons.org/licenses/by-sa/4.0/" />
        <dc:creator>
          <cc:Agent>
            <dc:title>https://svgstud.io</dc:title>
          </cc:Agent>
        </dc:creator>
      </cc:Work>
      <cc:License rdf:about="http://creativecommons.org/licenses/by-sa/4.0/">
        <cc:permits rdf:resource="http://creativecommons.org/ns#Reproduction" />
        <cc:permits rdf:resource="http://creativecommons.org/ns#Distribution" />
        <cc:requires rdf:resource="http://creativecommons.org/ns#Notice" />
        <cc:requires rdf:resource="http://creativecommons.org/ns#Attribution" />
        <cc:permits rdf:resource="http://creativecommons.org/ns#DerivativeWorks" />
        <cc:requires rdf:resource="http://creativecommons.org/ns#ShareAlike" />
      </cc:License>
    </rdf:RDF>
  </metadata>
  <metadata id="uid">00502ac6c7f7e9e91a8c52e4caca05bc9de5780af4efa860125db636cfb4b0f1</metadata>

  <path stroke="none" fill="black" fill-rule="evenodd" d="M384.50,593.37C376.80,593.62 365.55,593.46 359.50,593.01C353.45,592.55 344.00,591.45 338.50,590.56C333.00,589.67 323.77,587.82 318.00,586.45C312.23,585.08 303.90,582.80 299.50,581.39C295.10,579.98 287.76,577.28 283.18,575.39C278.60,573.50 271.40,570.21 267.18,568.08C262.96,565.95 255.90,562.09 251.50,559.48C247.10,556.88 239.54,552.04 234.70,548.73C229.67,545.29 225.25,541.44 224.37,539.74C223.52,538.10 221.52,530.04 219.93,521.82C218.34,513.60 216.77,506.44 216.44,505.91C216.12,505.38 211.11,499.67 205.32,493.22C199.53,486.78 191.65,476.77 187.81,471.00C183.97,465.23 178.66,456.00 176.01,450.50C173.37,445.00 169.53,436.00 167.49,430.51C165.45,425.01 162.71,415.79 161.39,410.01C160.08,404.23 158.55,395.68 158.01,391.00C157.46,386.32 157.01,376.86 157.01,369.97C157.00,363.08 157.69,351.83 158.53,344.97C159.37,338.11 161.14,328.00 162.46,322.50C163.78,317.00 166.24,308.31 167.92,303.20C169.60,298.08 172.88,289.76 175.20,284.70C177.52,279.64 182.21,270.77 185.61,265.00C189.01,259.23 195.09,250.22 199.12,245.00C203.15,239.78 210.93,230.87 216.42,225.21C221.90,219.55 230.60,211.45 235.74,207.21C240.89,202.97 249.69,196.44 255.30,192.70C260.91,188.96 273.15,182.11 282.50,177.48C291.85,172.86 305.34,166.99 312.48,164.45C319.62,161.90 330.87,158.26 337.48,156.35C344.09,154.45 354.00,152.17 359.50,151.29C366.03,150.24 376.27,149.66 389.00,149.62C403.02,149.57 411.73,150.05 420.00,151.33C426.32,152.31 435.10,154.02 439.50,155.12C443.90,156.23 451.68,158.42 456.78,160.01C461.89,161.59 469.09,164.09 472.78,165.56C476.48,167.03 483.66,170.47 488.75,173.20C493.84,175.94 498.00,178.37 498.00,178.60C498.00,178.84 495.33,177.68 492.06,176.03C488.79,174.38 480.13,170.97 472.81,168.45C465.49,165.93 454.55,162.59 448.50,161.02C442.45,159.45 431.20,157.37 423.50,156.38C414.21,155.20 403.27,154.62 391.00,154.67C379.01,154.71 369.14,155.30 362.96,156.34C357.71,157.22 350.51,158.86 346.96,159.98C343.41,161.11 339.15,163.15 337.50,164.51C334.50,166.99 334.50,166.99 337.00,166.98C338.38,166.97 345.35,166.30 352.50,165.49C359.65,164.68 372.26,164.02 380.53,164.01C388.80,164.00 401.17,164.69 408.03,165.54C414.89,166.38 425.00,167.98 430.50,169.07C436.00,170.17 444.55,172.21 449.50,173.59C454.45,174.98 462.32,177.50 467.00,179.19C471.68,180.88 480.42,184.48 486.43,187.17C492.44,189.87 497.92,191.86 498.60,191.60C499.29,191.34 503.37,192.83 507.68,194.91C511.98,196.99 518.88,200.87 523.00,203.53C527.12,206.19 533.65,210.68 537.50,213.51C541.35,216.34 549.42,223.35 555.42,229.08C561.43,234.81 569.85,243.89 574.14,249.26C578.43,254.63 584.85,263.96 588.41,269.99C591.97,276.03 596.27,283.87 597.96,287.41C599.65,290.96 602.55,298.06 604.41,303.18C606.26,308.31 608.96,317.32 610.41,323.22C611.86,329.11 613.76,338.78 614.65,344.72C615.66,351.49 616.27,362.19 616.28,373.50C616.30,387.28 615.81,394.44 614.19,404.04C613.03,410.93 610.53,421.96 608.63,428.54C606.73,435.12 603.07,445.45 600.49,451.50C597.91,457.55 594.19,465.43 592.22,469.00C590.25,472.57 585.96,479.55 582.70,484.50C579.43,489.45 573.43,497.65 569.36,502.73C565.29,507.81 559.19,514.93 555.81,518.55C552.42,522.17 543.99,529.89 537.07,535.71C530.16,541.52 519.47,549.59 513.32,553.62C507.18,557.66 496.76,563.66 490.18,566.95C483.59,570.24 474.90,574.25 470.85,575.85C466.81,577.46 459.68,579.98 455.00,581.46C450.32,582.93 442.00,585.21 436.50,586.51C431.00,587.82 420.20,589.79 412.50,590.89C404.80,592.00 392.20,593.11 384.50,593.37zM366.50,569.42C375.30,569.21 386.55,568.57 391.50,568.00C396.45,567.44 405.23,566.04 411.00,564.90C416.77,563.76 425.41,561.75 430.18,560.42C434.96,559.09 443.51,556.38 449.18,554.40C454.86,552.41 464.90,548.18 471.50,544.99C478.10,541.80 487.55,536.64 492.50,533.52C497.45,530.41 505.77,524.63 510.98,520.68C516.20,516.73 524.99,509.00 530.51,503.50C536.04,498.00 543.53,489.68 547.15,485.00C550.78,480.32 555.86,473.21 558.45,469.20C561.04,465.18 565.81,456.41 569.04,449.70C572.27,442.99 576.25,433.68 577.88,429.00C579.51,424.32 581.60,417.57 582.53,414.00C583.45,410.43 584.83,403.45 585.59,398.50C586.35,393.55 587.26,383.88 587.61,377.00C587.98,369.67 587.75,359.74 587.07,353.00C586.43,346.68 584.61,336.10 583.02,329.50C581.44,322.90 578.72,313.45 576.99,308.50C575.25,303.55 571.80,295.45 569.33,290.50C566.86,285.55 562.40,277.84 559.43,273.37C556.46,268.90 551.16,261.70 547.65,257.37C544.13,253.04 536.14,244.55 529.88,238.50C523.62,232.45 514.23,224.47 509.00,220.77C503.77,217.06 492.07,210.24 483.00,205.61C472.44,200.22 462.36,195.92 455.00,193.65C448.68,191.71 440.80,189.44 437.50,188.61C434.20,187.78 425.20,186.17 417.50,185.02C409.80,183.88 396.75,182.68 388.50,182.35C379.42,181.98 369.16,182.20 362.50,182.92C356.45,183.57 345.92,185.22 339.09,186.59C332.26,187.96 321.24,190.85 314.59,193.02C307.94,195.19 296.20,200.06 288.50,203.85C280.80,207.64 270.45,213.41 265.50,216.69C260.55,219.96 252.45,226.02 247.50,230.15C242.55,234.28 234.87,241.50 230.44,246.20C226.00,250.89 219.89,258.06 216.85,262.12C213.81,266.18 209.00,273.46 206.15,278.29C203.31,283.13 199.70,289.65 198.13,292.79C196.56,295.93 193.84,302.41 192.10,307.18C190.35,311.96 187.85,320.08 186.54,325.23C185.24,330.38 183.39,340.64 182.45,348.04C181.15,358.16 180.88,365.10 181.35,376.00C181.75,385.40 182.82,394.55 184.41,402.00C185.75,408.32 188.49,418.19 190.50,423.92C192.50,429.64 195.90,437.83 198.05,442.10C200.20,446.37 203.96,453.26 206.42,457.41C208.87,461.56 213.69,468.68 217.13,473.23C220.57,477.78 229.49,487.59 236.95,495.04C244.40,502.49 254.55,511.61 259.50,515.30C264.45,518.99 273.45,524.45 279.50,527.43C285.55,530.41 294.35,534.19 299.06,535.83C303.76,537.47 312.05,539.77 317.46,540.94C322.88,542.12 327.69,543.31 328.16,543.60C328.62,543.88 329.00,544.72 329.00,545.45C329.00,546.18 327.95,547.05 326.68,547.37C325.40,547.69 320.35,547.50 315.47,546.94C310.58,546.39 303.19,545.23 299.04,544.38C294.89,543.52 286.81,541.25 281.08,539.34C275.35,537.42 266.58,533.80 261.58,531.29C256.59,528.79 250.25,525.29 247.50,523.52C244.75,521.76 238.78,517.09 234.23,513.16C229.68,509.22 225.52,506.00 224.98,506.00C224.44,506.00 223.99,506.56 223.99,507.25C223.98,507.94 224.71,515.02 225.63,523.00C226.54,530.98 227.74,538.09 228.31,538.80C228.87,539.52 230.13,540.53 231.10,541.05C232.35,541.72 233.31,541.54 234.43,540.43C235.29,539.56 236.00,537.76 236.00,536.43C236.00,534.86 236.57,534.00 237.61,534.00C238.50,534.00 242.44,536.00 246.36,538.44C250.29,540.88 259.12,545.58 266.00,548.88C272.88,552.17 283.32,556.45 289.21,558.38C295.10,560.30 305.00,563.01 311.21,564.38C317.42,565.76 327.00,567.36 332.50,567.94C338.00,568.52 344.30,569.18 346.50,569.41C348.70,569.63 357.70,569.63 366.50,569.42zM370.00,550.80C366.98,550.70 361.73,550.46 358.33,550.26C354.84,550.06 351.69,549.34 351.07,548.58C350.47,547.86 349.02,543.26 347.87,538.38C346.71,533.50 344.28,523.48 342.46,516.13C340.65,508.78 338.78,502.38 338.32,501.92C337.85,501.45 332.07,501.52 325.48,502.07C318.89,502.62 309.45,502.78 304.50,502.44C299.55,502.09 292.18,501.14 288.11,500.33C284.05,499.52 278.45,497.97 275.67,496.87C272.90,495.78 266.86,492.43 262.27,489.43C257.67,486.44 249.99,480.03 245.20,475.20C240.42,470.37 233.70,462.33 230.28,457.34C226.86,452.35 222.47,444.75 220.52,440.47C218.56,436.18 215.86,429.03 214.51,424.59C213.16,420.14 211.37,412.23 210.53,407.00C209.70,401.77 209.01,391.37 209.00,383.88C209.00,376.25 209.67,366.36 210.52,361.38C211.35,356.50 213.20,348.36 214.61,343.31C216.03,338.25 219.35,328.58 221.99,321.81C225.03,314.03 227.38,309.38 228.39,309.18C229.27,309.00 233.48,310.93 237.74,313.47C242.01,316.01 249.40,320.88 254.16,324.30C258.92,327.71 269.49,336.43 277.66,343.68C285.82,350.93 294.91,359.31 297.85,362.31C302.60,367.15 303.35,368.51 304.61,374.52C305.39,378.24 307.36,389.29 308.99,399.08C311.22,412.55 312.68,418.43 314.97,423.28C316.63,426.80 318.85,430.46 319.90,431.41C320.95,432.36 322.04,432.75 322.32,432.29C322.61,431.82 321.29,420.88 319.40,407.97C317.50,395.06 315.50,381.35 314.95,377.50C314.39,373.65 313.68,361.05 313.37,349.50C312.88,331.52 313.09,326.56 314.82,315.00C315.94,307.57 317.59,298.26 318.49,294.30C319.89,288.16 321.35,285.37 328.42,275.28C332.98,268.78 337.48,261.96 338.43,260.14C339.37,258.31 339.92,256.58 339.64,256.30C339.36,256.02 336.96,256.85 334.31,258.13C331.67,259.42 327.25,262.11 324.50,264.12C321.75,266.12 315.85,271.53 311.39,276.13C306.93,280.73 301.65,287.05 299.67,290.16C297.68,293.27 294.92,298.38 293.53,301.52C292.15,304.66 290.11,310.14 289.01,313.72C287.90,317.29 287.00,321.99 287.00,324.17C287.00,326.35 287.51,329.11 288.13,330.32C288.75,331.52 292.18,336.44 295.74,341.26C299.37,346.17 302.59,351.70 303.07,353.83C303.54,355.92 303.58,358.91 303.16,360.48C302.43,363.24 302.11,362.93 293.19,350.91C288.13,344.09 283.08,336.67 281.99,334.43C280.90,332.20 280.00,328.69 280.00,326.64C280.00,324.59 280.70,319.53 281.55,315.40C282.41,311.26 284.66,304.48 286.55,300.32C288.45,296.16 292.09,289.83 294.65,286.24C297.21,282.65 302.27,276.57 305.90,272.72C309.53,268.87 316.10,262.93 320.50,259.52C324.90,256.10 331.86,251.37 335.96,248.99C340.06,246.61 347.48,242.77 352.46,240.45C357.43,238.13 365.32,235.02 370.00,233.54C374.68,232.06 382.55,229.99 387.50,228.94C392.45,227.89 397.69,227.02 399.14,227.02C400.60,227.01 401.99,227.56 402.24,228.25C402.49,228.94 401.38,234.22 399.78,240.00C398.18,245.78 395.05,256.35 392.83,263.50C390.61,270.65 385.42,285.60 381.31,296.71C377.19,307.83 372.17,319.66 370.15,323.00C368.13,326.34 364.24,331.81 361.49,335.15C358.75,338.49 353.35,343.81 349.50,346.97C345.65,350.13 339.85,354.40 336.62,356.47C330.73,360.23 330.73,360.23 331.36,366.87C331.71,370.51 333.33,381.55 334.97,391.40C336.61,401.24 338.22,410.13 338.55,411.15C338.87,412.17 339.47,413.00 339.89,413.00C340.30,413.00 343.16,409.29 346.25,404.75C349.34,400.21 355.87,392.00 360.76,386.50C365.66,381.00 373.45,373.09 378.08,368.92C382.71,364.75 390.70,358.08 395.84,354.09C400.97,350.10 410.20,343.54 416.34,339.50C422.48,335.47 432.68,329.46 439.00,326.15C445.32,322.84 455.56,318.07 461.74,315.55C467.92,313.03 478.49,309.37 485.24,307.43C491.98,305.48 502.68,303.00 509.00,301.91C517.05,300.53 525.25,299.92 536.32,299.89C548.81,299.86 552.62,300.17 554.44,301.37C556.02,302.40 556.96,304.25 557.40,307.19C557.75,309.56 558.71,316.45 559.52,322.50C560.33,328.55 561.28,341.15 561.63,350.50C562.04,361.26 561.83,372.09 561.06,380.00C560.39,386.88 559.16,395.88 558.33,400.00C557.50,404.12 555.74,411.39 554.43,416.14C553.11,420.89 550.67,428.47 549.01,432.98C547.34,437.50 543.31,446.43 540.04,452.85C536.77,459.26 530.63,469.45 526.39,475.50C521.42,482.59 514.02,491.15 505.59,499.56C496.38,508.75 489.45,514.62 482.21,519.38C476.54,523.11 465.97,529.02 458.71,532.52C450.51,536.48 440.76,540.23 433.00,542.41C426.12,544.34 416.68,546.61 412.00,547.46C407.32,548.30 397.20,549.44 389.50,549.99C381.80,550.54 373.02,550.90 370.00,550.80zM374.35,538.05C374.93,537.47 375.42,533.29 375.45,528.75C375.50,520.50 375.50,520.50 379.50,519.34C381.70,518.70 390.70,516.50 399.50,514.46C408.30,512.42 421.58,508.80 429.00,506.42C436.43,504.03 443.41,501.37 444.50,500.50C446.39,498.99 446.29,498.94 442.50,499.46C440.30,499.76 434.23,500.48 429.00,501.06C423.77,501.64 409.26,502.11 396.73,502.11C384.21,502.10 373.54,501.84 373.02,501.51C372.50,501.19 371.78,499.34 371.41,497.39C371.05,495.44 371.17,493.43 371.69,492.91C372.21,492.39 375.75,491.33 379.57,490.54C383.38,489.76 396.62,487.94 409.00,486.50C421.38,485.05 437.03,482.77 443.79,481.42C450.55,480.07 457.98,478.08 460.29,476.98C462.61,475.88 467.55,472.70 471.27,469.90C474.99,467.10 482.64,460.37 488.27,454.95C498.50,445.08 498.50,445.08 462.25,445.04C433.21,445.01 426.00,444.74 426.00,443.70C426.00,442.99 427.46,441.90 429.25,441.28C431.04,440.66 434.98,439.67 438.00,439.07C441.02,438.48 452.95,436.87 464.50,435.50C476.05,434.12 490.68,432.29 497.00,431.43C503.32,430.56 509.55,429.18 510.84,428.35C512.23,427.45 515.92,421.22 520.03,412.81C523.80,405.09 528.97,392.41 531.52,384.64C534.07,376.86 537.24,366.00 538.56,360.50C539.88,355.00 542.10,343.14 543.48,334.14C544.87,325.15 546.00,317.39 546.00,316.89C546.00,316.40 539.81,316.01 532.25,316.02C524.69,316.03 513.83,316.70 508.12,317.51C502.41,318.32 494.08,319.86 489.62,320.93C485.15,321.99 476.77,324.51 471.00,326.52C465.23,328.53 456.00,332.26 450.50,334.81C445.00,337.37 436.68,341.65 432.02,344.32C427.35,346.99 419.70,351.67 415.02,354.72C410.33,357.76 403.57,362.54 400.00,365.33C396.43,368.13 389.29,374.48 384.14,379.46C379.00,384.43 372.20,391.65 369.04,395.50C365.87,399.35 360.48,406.77 357.06,411.99C353.64,417.20 349.30,424.22 347.41,427.59C343.99,433.70 343.99,433.70 345.54,442.60C346.40,447.50 348.41,456.90 350.02,463.50C351.63,470.10 355.45,484.50 358.50,495.50C361.56,506.50 365.46,519.77 367.18,525.00C368.90,530.23 370.98,535.54 371.80,536.80C372.85,538.41 373.61,538.79 374.35,538.05zM311.50,487.86C317.00,487.93 323.86,487.70 326.75,487.35C331.37,486.80 332.00,486.45 332.00,484.43C332.00,483.17 330.42,474.80 328.48,465.82C326.55,456.84 324.56,448.55 324.06,447.38C323.28,445.53 320.68,444.78 303.92,441.56C293.34,439.53 281.23,436.78 277.03,435.45C272.82,434.12 266.71,431.18 263.44,428.92C260.17,426.65 255.77,423.16 253.66,421.15C251.54,419.14 247.90,414.80 245.55,411.50C243.21,408.20 239.89,402.35 238.17,398.50C236.45,394.65 233.87,387.45 232.44,382.50C230.56,376.01 229.68,370.13 229.28,361.40C228.94,353.99 229.10,349.06 229.70,348.69C230.26,348.34 231.83,353.59 233.44,361.29C234.97,368.56 237.32,378.32 238.68,382.99C240.03,387.67 241.79,392.21 242.59,393.10C243.39,393.99 247.97,395.74 252.77,396.99C257.57,398.24 267.94,401.51 275.82,404.24C283.69,406.97 290.35,408.98 290.62,408.72C290.88,408.45 288.43,405.83 285.17,402.90C281.90,399.97 274.56,395.07 268.86,392.02C258.50,386.48 258.50,386.48 256.70,380.99C255.71,377.97 253.34,369.02 251.42,361.09C249.51,353.17 248.06,346.31 248.22,345.86C248.37,345.41 253.49,351.66 259.59,359.77C265.69,367.87 272.99,377.89 275.82,382.04C278.64,386.18 282.43,391.09 284.23,392.93C287.50,396.29 287.50,396.29 287.83,392.99C288.00,391.17 287.16,386.61 285.95,382.86C284.75,379.10 281.87,372.72 279.57,368.68C277.27,364.64 271.89,356.99 267.62,351.69C263.35,346.38 255.28,337.73 249.68,332.48C244.08,327.22 237.14,321.29 234.25,319.29C231.36,317.30 228.84,315.85 228.64,316.08C228.44,316.31 226.19,322.80 223.65,330.50C221.11,338.20 218.05,349.00 216.85,354.50C215.08,362.63 214.68,367.59 214.73,381.00C214.79,394.61 215.23,399.51 217.27,409.00C218.63,415.32 221.14,424.10 222.85,428.50C224.56,432.90 228.01,440.00 230.52,444.27C233.02,448.54 238.01,455.16 241.61,458.97C245.21,462.79 251.38,468.37 255.33,471.39C259.27,474.41 265.43,478.24 269.00,479.91C272.57,481.57 278.38,483.67 281.91,484.56C285.43,485.46 291.28,486.54 294.91,486.97C298.53,487.39 306.00,487.79 311.50,487.86zM368.38,478.00C368.03,478.00 368.06,475.19 368.44,471.75C368.83,468.31 370.91,460.10 373.06,453.50C375.22,446.90 378.93,437.20 381.30,431.94C383.68,426.69 388.82,417.00 392.71,410.42C396.60,403.84 402.53,394.76 405.88,390.24C409.24,385.72 414.52,377.73 417.64,372.49C420.75,367.25 423.47,363.14 423.70,363.36C423.92,363.59 422.73,369.27 421.04,376.00C419.36,382.72 417.76,388.58 417.49,389.02C417.22,389.46 416.60,392.67 416.11,396.16C415.63,399.65 415.44,402.84 415.68,403.26C415.93,403.68 418.86,401.30 422.20,397.96C425.54,394.62 430.79,390.19 433.88,388.11C436.97,386.03 442.43,382.72 446.00,380.76C449.57,378.80 458.80,374.69 466.50,371.64C474.20,368.59 484.66,364.95 489.75,363.55C494.84,362.15 503.16,359.85 508.25,358.45C513.34,357.05 519.08,355.14 521.00,354.20C523.01,353.22 526.41,349.88 529.00,346.32C531.48,342.92 533.86,340.11 534.30,340.07C534.73,340.03 534.79,341.69 534.43,343.75C534.07,345.81 532.95,349.41 531.94,351.75C530.94,354.09 527.73,358.52 524.82,361.59C521.92,364.67 515.48,370.46 510.52,374.47C505.56,378.48 488.90,390.20 473.50,400.53C458.10,410.85 443.62,420.69 441.33,422.40C439.04,424.10 430.75,430.00 422.91,435.50C415.06,441.00 404.56,448.64 399.57,452.47C394.58,456.30 385.66,463.61 379.76,468.72C373.85,473.82 368.73,478.00 368.38,478.00zM329.05,340.00C329.51,340.00 335.06,334.39 341.38,327.52C349.49,318.73 353.75,313.20 355.83,308.77C357.46,305.32 361.84,294.40 365.57,284.50C370.32,271.90 374.40,263.07 379.18,255.07C382.93,248.79 386.00,243.28 386.00,242.82C386.00,242.37 385.34,242.00 384.54,242.00C383.73,242.00 380.69,242.93 377.79,244.06C374.88,245.19 369.35,247.73 365.50,249.69C361.65,251.65 354.45,256.50 349.50,260.46C344.55,264.42 337.97,270.78 334.87,274.58C331.78,278.39 328.28,283.42 327.09,285.77C325.91,288.11 324.51,292.32 323.98,295.12C323.45,297.92 323.28,301.28 323.61,302.60C323.95,303.92 324.65,305.00 325.18,305.00C325.71,305.00 330.73,300.53 336.32,295.06C341.92,289.60 348.30,283.70 350.50,281.95C352.70,280.20 357.09,277.01 360.25,274.85C363.41,272.69 366.00,271.44 366.00,272.08C366.00,272.71 359.75,279.62 352.11,287.42C344.47,295.23 336.65,304.07 334.73,307.07C332.81,310.07 330.57,314.55 329.75,317.02C328.93,319.48 327.96,324.92 327.60,329.10C327.24,333.27 327.23,337.44 327.58,338.35C327.93,339.26 328.59,340.00 329.05,340.00z" />

</svg>
